<svg id="visual" viewBox="0 0 960 540" width="960" height="540" xmlns="http://www.w3.org/2000/svg" xmlns:xlink="http://www.w3.org/1999/xlink" version="1.1"><rect x="0" y="0" width="960" height="540" fill="#030712"></rect><defs><linearGradient id="grad1_0" x1="43.8%" y1="0%" x2="100%" y2="100%"><stop offset="14.444444444444446%" stop-color="#030712" stop-opacity="1"></stop><stop offset="85.55555555555554%" stop-color="#030712" stop-opacity="1"></stop></linearGradient></defs><defs><linearGradient id="grad2_0" x1="0%" y1="0%" x2="56.3%" y2="100%"><stop offset="14.444444444444446%" stop-color="#030712" stop-opacity="1"></stop><stop offset="85.55555555555554%" stop-color="#030712" stop-opacity="1"></stop></linearGradient></defs><g transform="translate(960, 0)"><path d="M0 486C-64.6 480.4 -129.2 474.8 -186 449C-242.7 423.2 -291.6 377.3 -328.1 328.1C-364.6 278.9 -388.7 226.3 -413 171.1C-437.2 115.8 -461.6 57.9 -486 0L0 0Z" fill="#7c6fee"></path></g><g transform="translate(0, 540)"><path d="M0 -486C56.1 -463.7 112.2 -441.3 174.9 -422.2C237.6 -403.1 306.9 -387.2 343.7 -343.7C380.4 -300.1 384.5 -228.7 402.8 -166.8C421.1 -105 453.6 -52.5 486 0L0 0Z" fill="#7c6fee"></path></g></svg>