<svg id="visual" viewBox="0 0 1920 1080" width="1920" height="1080" xmlns="http://www.w3.org/2000/svg"
    xmlns:xlink="http://www.w3.org/1999/xlink" version="1.1">
    <rect x="0" y="0" width="1920" height="1080" fill="transparent"></rect>
    <path
        d="M0 677L45.7 717.8C91.3 758.7 182.7 840.3 274.2 856C365.7 871.7 457.3 821.3 548.8 795.7C640.3 770 731.7 769 823 791.7C914.3 814.3 1005.7 860.7 1097 863.3C1188.3 866 1279.7 825 1371.2 819.8C1462.7 814.7 1554.3 845.3 1645.8 861.2C1737.3 877 1828.7 878 1874.3 878.5L1920 879L1920 1081L1874.3 1081C1828.7 1081 1737.3 1081 1645.8 1081C1554.3 1081 1462.7 1081 1371.2 1081C1279.7 1081 1188.3 1081 1097 1081C1005.7 1081 914.3 1081 823 1081C731.7 1081 640.3 1081 548.8 1081C457.3 1081 365.7 1081 274.2 1081C182.7 1081 91.3 1081 45.7 1081L0 1081Z"
        fill="#FCC414" stroke-linecap="round" stroke-linejoin="miter"></path>
</svg>